<svg aria-hidden="true" style="position: absolute; width: 0; height: 0; overflow: hidden;" version="1.1" xmlns="http://www.w3.org/2000/svg" xmlns:xlink="http://www.w3.org/1999/xlink">
<defs>
<symbol id="icon-checkmark" viewBox="0 0 32 32">
<path d="M28.998 8.531l-2.134-2.134c-0.394-0.393-1.030-0.393-1.423 0l-12.795 12.795-6.086-6.13c-0.393-0.393-1.029-0.393-1.423 0l-2.134 2.134c-0.393 0.394-0.393 1.030 0 1.423l8.924 8.984c0.393 0.393 1.030 0.393 1.423 0l15.648-15.649c0.393-0.392 0.393-1.030 0-1.423z"></path>
</symbol>
<symbol id="icon-cancel" viewBox="0 0 32 32">
<path d="M19.587 16.001l6.096 6.096c0.396 0.396 0.396 1.039 0 1.435l-2.151 2.151c-0.396 0.396-1.038 0.396-1.435 0l-6.097-6.096-6.097 6.096c-0.396 0.396-1.038 0.396-1.434 0l-2.152-2.151c-0.396-0.396-0.396-1.038 0-1.435l6.097-6.096-6.097-6.097c-0.396-0.396-0.396-1.039 0-1.435l2.153-2.151c0.396-0.396 1.038-0.396 1.434 0l6.096 6.097 6.097-6.097c0.396-0.396 1.038-0.396 1.435 0l2.151 2.152c0.396 0.396 0.396 1.038 0 1.435l-6.096 6.096z"></path>
</symbol>
<symbol id="icon-chart" viewBox="0 0 32 32">
<path d="M16.998 14.942c0 0 0.096-11.986 0-11.986 6.896 0 11.986 5.090 11.986 11.986 0 0.038-11.986 0-11.986 0zM27.986 17.402c0 7.171-5.814 12.985-12.985 12.985-7.172 0-12.985-5.814-12.985-12.985 0-7.172 5.813-12.985 12.985-12.985 0.337 0 0.668 0.024 0.999 0.050v11.474h11.908c0.050 0.46 0.078 0.988 0.078 1.461zM26.925 17.002h-11.924v-11.586c-6.62 0-11.986 5.367-11.986 11.987s5.366 11.985 11.986 11.985 11.986-5.365 11.986-11.985c0-1.29-0.062-0.401-0.062-0.401z"></path>
</symbol>
<symbol id="icon-chart1" viewBox="0 0 32 32">
<path d="M3.987 4h-0.987v24h26v-0.963l-24.996-0.050-0.017-22.987zM11 5c0-0.553-0.448-1-1-1h-3c-0.553 0-1 0.447-1 1v20h5v-20zM17 11c0-0.553-0.448-1-1-1h-3c-0.553 0-1 0.447-1 1v14h5v-14zM23 17c0-0.553-0.448-1-1-1h-3c-0.553 0-1 0.447-1 1v8h5v-8zM28 22h-3c-0.553 0-1 0.447-1 1v2h5v-2c0-0.553-0.448-1-1-1z"></path>
</symbol>
<symbol id="icon-switch" viewBox="0 0 32 32">
<path d="M15.5 31.062c-6.904 0-12.5-5.597-12.5-12.5 0-5.315 3.323-9.844 8-11.651v4.449c-2.399 1.503-4 4.162-4 7.202 0 4.694 3.806 8.5 8.5 8.5s8.5-3.806 8.5-8.5c0-2.596-1.166-4.915-3-6.475v-4.736c4.143 2.036 7 6.284 7 11.212 0 6.903-5.597 12.499-12.5 12.499zM16 17.062c-1.104 0-2-0.896-2-2v-11.124c0-1.104 0.896-2 2-2s2 0.896 2 2v11.125c0 1.104-0.896 1.999-2 1.999z"></path>
</symbol>
<symbol id="icon-gears" viewBox="0 0 42 32">
<path d="M3.692 21.72c0.176 0.042 0.415 0.259 0.484 0.457l0.35 0.844c0.079 0.162 0.064 0.483-0.030 0.637l-1.397 2.284c-0.299 0.49-0.237 1.184 0.165 1.634l1.183 1.182c0.412 0.366 1.139 0.432 1.613 0.145l2.284-1.397c0.143-0.088 0.45-0.119 0.665-0.018l0.843 0.348c0.17 0.059 0.387 0.297 0.429 0.473l0.627 2.604c0.133 0.552 0.66 1.006 1.226 1.058 0 0 0.347 0.032 0.867 0.032s0.867-0.032 0.868-0.032c0.565-0.051 1.092-0.506 1.225-1.058l0.628-2.604c0.042-0.175 0.258-0.414 0.456-0.483l0.844-0.35c0.149-0.073 0.494-0.058 0.637 0.030l2.284 1.397c0.201 0.123 0.441 0.188 0.696 0.188 0.345 0 0.679-0.121 0.938-0.352l1.182-1.183c0.382-0.429 0.444-1.123 0.145-1.613l-1.397-2.284c-0.094-0.154-0.109-0.475-0.018-0.665l0.348-0.843c0.059-0.17 0.297-0.387 0.473-0.429l2.604-0.627c0.552-0.133 1.006-0.66 1.058-1.226 0 0 0.032-0.347 0.032-0.867s-0.032-0.867-0.032-0.868c-0.051-0.565-0.506-1.092-1.058-1.226l-2.603-0.626c-0.176-0.042-0.415-0.259-0.484-0.457l-0.35-0.844c-0.079-0.162-0.064-0.483 0.030-0.637l1.397-2.284c0.299-0.49 0.237-1.184-0.165-1.634l-1.183-1.182c-0.413-0.367-1.141-0.433-1.613-0.145l-2.284 1.397c-0.143 0.087-0.451 0.12-0.665 0.018l-0.843-0.348c-0.17-0.059-0.386-0.297-0.428-0.473l-0.628-2.604c-0.133-0.552-0.66-1.006-1.226-1.058-0.002 0.001-0.349-0.031-0.869-0.031s-0.867 0.032-0.868 0.032c-0.565 0.051-1.092 0.506-1.226 1.058l-0.626 2.602c-0.042 0.176-0.259 0.415-0.457 0.484l-0.844 0.35c-0.15 0.073-0.494 0.057-0.637-0.030l-2.283-1.397c-0.473-0.288-1.185-0.238-1.634 0.164l-1.182 1.183c-0.382 0.429-0.444 1.123-0.145 1.613l1.397 2.284c0.094 0.154 0.109 0.475 0.018 0.665l-0.348 0.843c-0.059 0.17-0.297 0.387-0.473 0.429l-2.604 0.627c-0.552 0.133-1.006 0.66-1.058 1.226 0.002 0-0.030 0.347-0.030 0.867s0.032 0.867 0.032 0.868c0.051 0.565 0.506 1.092 1.058 1.226l2.602 0.626zM1 19c0-0.458 0.027-0.767 0.028-0.777 0.012-0.135 0.165-0.312 0.296-0.344l2.604-0.627c0.505-0.122 1.014-0.584 1.172-1.047l0.324-0.787c0.228-0.467 0.196-1.153-0.075-1.597l-1.397-2.283c-0.067-0.111-0.048-0.331 0.018-0.406l1.141-1.142c0.091-0.081 0.323-0.101 0.427-0.038l2.284 1.397c0.433 0.265 1.175 0.283 1.568 0.088l0.788-0.326c0.491-0.169 0.953-0.678 1.075-1.184l0.626-2.603c0.032-0.132 0.209-0.285 0.344-0.297 0.010 0 0.319-0.027 0.777-0.027s0.767 0.027 0.777 0.028c0.135 0.012 0.312 0.165 0.344 0.296l0.627 2.603c0.122 0.505 0.583 1.015 1.047 1.173l0.787 0.324c0.457 0.224 1.165 0.189 1.597-0.075l2.283-1.397c0.104-0.063 0.35-0.030 0.406 0.018l1.142 1.141c0.086 0.097 0.105 0.316 0.038 0.427l-1.397 2.284c-0.271 0.443-0.303 1.13-0.088 1.568l0.326 0.788c0.169 0.491 0.678 0.953 1.184 1.075l2.603 0.626c0.132 0.032 0.285 0.209 0.297 0.344 0 0.010 0.027 0.319 0.027 0.777s-0.027 0.767-0.028 0.777c-0.012 0.135-0.165 0.312-0.296 0.344l-2.604 0.627c-0.505 0.122-1.014 0.584-1.172 1.047l-0.324 0.787c-0.228 0.467-0.196 1.153 0.075 1.597l1.397 2.283c0.067 0.111 0.048 0.331-0.018 0.406l-1.141 1.142c-0.054 0.048-0.152 0.079-0.251 0.079-0.069 0-0.133-0.015-0.175-0.041l-2.284-1.397c-0.432-0.264-1.174-0.283-1.568-0.088l-0.788 0.326c-0.491 0.169-0.953 0.679-1.074 1.184l-0.627 2.603c-0.032 0.132-0.209 0.285-0.344 0.297-0.011 0-0.32 0.027-0.778 0.027s-0.767-0.027-0.777-0.028c-0.135-0.012-0.312-0.165-0.344-0.296l-0.627-2.604c-0.122-0.505-0.584-1.014-1.047-1.172l-0.787-0.324c-0.204-0.1-0.451-0.152-0.715-0.152-0.329 0-0.642 0.081-0.882 0.228l-2.283 1.397c-0.104 0.063-0.351 0.029-0.406-0.018l-1.142-1.142c-0.086-0.097-0.105-0.316-0.038-0.427l1.397-2.284c0.271-0.443 0.303-1.13 0.088-1.568l-0.326-0.788c-0.169-0.491-0.678-0.953-1.184-1.075l-2.603-0.626c-0.132-0.032-0.285-0.209-0.297-0.344 0-0.010-0.027-0.319-0.027-0.777zM13 24.5c3.033 0 5.5-2.467 5.5-5.5s-2.467-5.5-5.5-5.5-5.5 2.467-5.5 5.5 2.467 5.5 5.5 5.5zM13 14.5c2.481 0 4.5 2.019 4.5 4.5s-2.019 4.5-4.5 4.5-4.5-2.019-4.5-4.5 2.019-4.5 4.5-4.5zM27.477 5.314c-0.040 0.061-0.185 0.138-0.259 0.138l-1.861-0.018c-0.452 0-0.905 0.321-1.053 0.746 0 0-0.082 0.233-0.172 0.59s-0.128 0.601-0.128 0.601c-0.070 0.451 0.181 0.95 0.584 1.161l1.641 0.86c0.063 0.033 0.156 0.172 0.166 0.273l0.093 0.635c0.015 0.070-0.033 0.23-0.084 0.28l-1.322 1.296c-0.331 0.324-0.418 0.878-0.19 1.313l0.599 1c0.253 0.372 0.801 0.562 1.231 0.428l1.824-0.558c0.099 0 0.198 0.038 0.254 0.083l0.515 0.38c0.060 0.040 0.139 0.187 0.138 0.259l-0.018 1.852c-0.004 0.456 0.316 0.913 0.746 1.063 0 0 0.233 0.082 0.59 0.172s0.601 0.128 0.601 0.128c0.026 0.004 0.13 0.012 0.156 0.012 0.408 0 0.822-0.245 1.005-0.596l0.86-1.641c0.033-0.063 0.172-0.156 0.273-0.166l0.663-0.096c0.1 0 0.218 0.052 0.251 0.086l1.296 1.322c0.315 0.322 0.846 0.437 1.313 0.19l0.999-0.599c0.382-0.26 0.567-0.79 0.429-1.231l-0.552-1.767c-0.021-0.068 0.012-0.232 0.078-0.311l0.38-0.515c0.040-0.061 0.185-0.138 0.259-0.138l1.861 0.018c0.452 0 0.905-0.321 1.053-0.746 0 0 0.082-0.233 0.172-0.59s0.128-0.601 0.128-0.601c0.070-0.451-0.181-0.95-0.584-1.161l-1.641-0.86c-0.063-0.033-0.156-0.172-0.166-0.273l-0.092-0.633c-0.015-0.070 0.033-0.23 0.084-0.28l1.322-1.296c0.331-0.324 0.418-0.878 0.19-1.313l-0.599-1c-0.253-0.371-0.8-0.563-1.231-0.429l-1.825 0.558c-0.099 0-0.198-0.038-0.254-0.083l-0.515-0.38c-0.060-0.040-0.139-0.187-0.138-0.259l0.018-1.852c0.004-0.456-0.316-0.913-0.746-1.063 0 0-0.233-0.082-0.59-0.172s-0.601-0.128-0.601-0.128c-0.026-0.003-0.13-0.011-0.156-0.011-0.408 0-0.822 0.245-1.005 0.596l-0.86 1.641c-0.033 0.063-0.172 0.156-0.273 0.166l-0.663 0.095c-0.1 0-0.218-0.052-0.251-0.086l-1.296-1.322c-0.314-0.321-0.844-0.437-1.313-0.19l-1 0.598c-0.382 0.26-0.567 0.79-0.429 1.231l0.552 1.767c0.021 0.068-0.012 0.232-0.078 0.311l-0.379 0.515zM28.297 5.886l0.343-0.466c0.268-0.317 0.372-0.834 0.248-1.229l-0.551-1.766c-0.005-0.028 0.017-0.091 0.012-0.092l0.948-0.568 0.113 0.017 1.297 1.322c0.23 0.234 0.609 0.386 0.965 0.386 0.082 0 0.161-0.008 0.204-0.019l0.575-0.085c0.412-0.036 0.851-0.328 1.043-0.694l0.859-1.64c0.016-0.025 0.079-0.061 0.12-0.061 0.011 0.001 0.215 0.035 0.513 0.109s0.493 0.142 0.502 0.146c0.031 0.013 0.076 0.078 0.078 0.11l-0.018 1.852c-0.004 0.414 0.245 0.879 0.567 1.089l0.465 0.343c0.309 0.261 0.839 0.371 1.229 0.248l1.774-0.552c0.042 0 0.089 0.026 0.083 0.013l0.568 0.948c0.011 0.026 0 0.092-0.017 0.113l-1.322 1.297c-0.295 0.291-0.448 0.795-0.367 1.169l0.084 0.575c0.036 0.412 0.328 0.851 0.695 1.043l1.64 0.859c0.028 0.018 0.063 0.088 0.061 0.12-0.001 0.011-0.035 0.215-0.109 0.513s-0.142 0.493-0.146 0.502c-0.013 0.031-0.078 0.076-0.11 0.078l-1.862-0.018c-0.411 0-0.871 0.249-1.079 0.567l-0.342 0.465c-0.268 0.317-0.372 0.834-0.248 1.229l0.551 1.766c0.005 0.027-0.017 0.091-0.012 0.092l-0.948 0.568-0.113-0.017-1.297-1.322c-0.23-0.234-0.609-0.386-0.965-0.386-0.082 0-0.161 0.008-0.204 0.019l-0.575 0.085c-0.412 0.036-0.851 0.328-1.043 0.694l-0.859 1.64c-0.016 0.025-0.079 0.061-0.12 0.061v0c-0.011-0.001-0.215-0.035-0.513-0.109-0.297-0.075-0.493-0.142-0.502-0.146-0.031-0.013-0.076-0.078-0.078-0.11l0.018-1.852c0.004-0.414-0.245-0.879-0.567-1.089l-0.465-0.343c-0.222-0.188-0.549-0.3-0.875-0.3-0.126 0-0.246 0.018-0.355 0.052l-1.774 0.552c-0.043 0-0.090-0.023-0.083-0.013l-0.568-0.948c-0.011-0.026 0-0.092 0.017-0.113l1.322-1.297c0.295-0.291 0.448-0.795 0.367-1.169l-0.084-0.574c-0.036-0.412-0.328-0.851-0.695-1.043l-1.64-0.859c-0.028-0.018-0.063-0.088-0.061-0.12 0.001-0.011 0.035-0.215 0.109-0.513 0.075-0.297 0.142-0.493 0.146-0.502 0.013-0.031 0.078-0.076 0.11-0.078l1.862 0.018c0.411 0 0.871-0.249 1.079-0.567zM33 12c1.654 0 3-1.346 3-3s-1.346-3-3-3-3 1.346-3 3 1.346 3 3 3zM33 7c1.103 0 2 0.897 2 2s-0.897 2-2 2-2-0.897-2-2 0.897-2 2-2z"></path>
</symbol>
<symbol id="icon-layers" viewBox="0 0 32 32">
<path d="M30.765 7.262l-11.543-6.515c-1.571-0.887-4.271-0.888-5.845 0l-11.543 6.515c-0.883 0.499-1.368 1.197-1.368 1.967s0.486 1.468 1.368 1.966l11.543 6.516c0.786 0.444 1.824 0.688 2.922 0.688s2.137-0.245 2.923-0.688l11.543-6.516c0.883-0.498 1.369-1.196 1.369-1.966s-0.487-1.468-1.369-1.967zM30.239 10.265l-11.543 6.516c-1.238 0.699-3.556 0.7-4.794 0l-11.543-6.516c-0.524-0.296-0.824-0.674-0.824-1.036s0.3-0.74 0.824-1.037l11.543-6.516c0.619-0.35 1.493-0.55 2.396-0.55 0.904 0 1.778 0.201 2.397 0.55l11.543 6.516c0.524 0.296 0.825 0.674 0.825 1.037 0.001 0.362-0.299 0.74-0.824 1.036zM30.765 14.099c-0.256-0.145-0.582-0.055-0.729 0.203-0.145 0.257-0.054 0.583 0.203 0.728 0.524 0.296 0.825 0.674 0.825 1.036s-0.301 0.74-0.825 1.036l-11.543 6.516c-1.298 0.733-3.494 0.734-4.794 0l-11.543-6.516c-0.524-0.296-0.824-0.674-0.824-1.036s0.3-0.74 0.824-1.036c0.257-0.145 0.348-0.471 0.203-0.728s-0.473-0.349-0.729-0.203c-0.883 0.498-1.368 1.197-1.368 1.967s0.485 1.469 1.368 1.967l11.543 6.516c0.819 0.462 1.871 0.694 2.922 0.694s2.104-0.231 2.923-0.694l11.543-6.516c0.883-0.498 1.369-1.197 1.369-1.967s-0.486-1.469-1.368-1.967zM30.765 20.804c-0.256-0.145-0.582-0.055-0.729 0.203-0.145 0.257-0.054 0.583 0.203 0.728 0.524 0.296 0.825 0.674 0.825 1.036s-0.301 0.74-0.825 1.037l-11.543 6.516c-1.298 0.733-3.494 0.734-4.794 0l-11.543-6.517c-0.524-0.296-0.824-0.674-0.824-1.037 0-0.362 0.3-0.74 0.824-1.036 0.257-0.145 0.348-0.471 0.203-0.728s-0.473-0.349-0.729-0.203c-0.881 0.499-1.367 1.197-1.367 1.968s0.485 1.469 1.368 1.967l11.543 6.516c0.819 0.462 1.871 0.694 2.922 0.694 1.052 0 2.104-0.231 2.923-0.694l11.543-6.516c0.883-0.499 1.369-1.197 1.369-1.967s-0.487-1.469-1.369-1.967z"></path>
</symbol>
<symbol id="icon-pencil" viewBox="0 0 32 32">
<path d="M0 31.479c0 0.276 0.224 0.5 0.5 0.5h31.111c0.067 0 0.132-0.013 0.193-0.039s0.116-0.063 0.162-0.109c0.001-0.001 0.002-0.001 0.003-0.002 0.003-0.003 0.003-0.009 0.007-0.012 0.051-0.055 0.084-0.122 0.107-0.195 0.007-0.023 0.010-0.045 0.014-0.069 0.004-0.025 0.015-0.047 0.015-0.073 0-0.040-0.014-0.075-0.023-0.112-0.003-0.014 0.003-0.028-0.002-0.042l-3.16-9.715c-0.024-0.075-0.066-0.144-0.122-0.199l-17.117-17.118c-0.018-0.028-0.031-0.058-0.055-0.083l-3.739-3.739c-0.607-0.607-1.595-0.607-2.203 0l-5.235 5.235c-0.294 0.294-0.456 0.685-0.456 1.101s0.162 0.808 0.456 1.102l3.656 3.656c0.018 0.027 0.030 0.058 0.054 0.082l17.090 17.205c0.059 0.060 0.131 0.103 0.212 0.127l6.713 2h-27.681c-0.276-0.001-0.5 0.223-0.5 0.499zM6.362 10.161l15.687 15.486-0.577 2.002-16.245-16.353 1.135-1.135zM22.816 25l-15.748-15.545 2.437-2.437 15.607 15.648v2.334h-2.296zM25.735 21.875l-15.523-15.564 1.039-1.039 16.211 16.211-1.727 0.392zM22.988 26h2.624c0.276 0 0.5-0.224 0.5-0.5v-2.685l2.007-0.456 2.723 8.37-8.488-2.529 0.634-2.2zM1 6.808c0-0.149 0.058-0.288 0.163-0.394l5.235-5.235c0.217-0.217 0.57-0.218 0.789 0l3.372 3.372-6.023 6.023-3.372-3.372c-0.106-0.105-0.164-0.245-0.164-0.394z"></path>
</symbol>
<symbol id="icon-tags" viewBox="0 0 24 24">
<path d="M21.422 9.594l-6.465-6.535c-1.329-1.33-3.087-2.059-4.957-2.059s-3.628 0.729-4.95 2.051c-1.416 1.414-2.127 3.356-2.027 5.314-0.662 1.085-1.023 2.33-1.023 3.634 0 1.87 0.729 3.628 2.051 4.95l3.053 2.984 3.482 3.48c0.391 0.392 0.902 0.587 1.414 0.587s1.023-0.195 1.414-0.586l7-7c0.778-0.778 0.782-2.038 0.008-2.82l-0.093-0.094 1.085-1.086c0.778-0.778 0.782-2.038 0.008-2.82zM12 22l-3.498-3.497-3.037-2.968c-1.953-1.953-1.953-5.119 0-7.070 0.976-0.977 2.256-1.465 3.535-1.465s2.559 0.488 3.535 1.465l6.465 6.535-7 7zM13.957 7.059c-1.329-1.33-3.087-2.059-4.957-2.059-1.276 0-2.497 0.347-3.565 0.982 0.241-0.55 0.579-1.067 1.030-1.518 0.976-0.976 2.256-1.464 3.535-1.464s2.559 0.488 3.535 1.465l6.465 6.535-1.078 1.078-4.965-5.019z"></path>
<path d="M9 10.499c0.83 0 1.5 0.672 1.5 1.501s-0.67 1.499-1.5 1.499-1.5-0.669-1.5-1.499c0-0.829 0.67-1.501 1.5-1.501M9 9.499c-1.378 0-2.5 1.122-2.5 2.501s1.122 2.499 2.5 2.499 2.5-1.121 2.5-2.499c0-1.379-1.122-2.501-2.5-2.501z"></path>
</symbol>
<symbol id="icon-color_lens" viewBox="0 0 24 24">
<path d="M17.484 12q0.609 0 1.055-0.422t0.445-1.078-0.445-1.078-1.055-0.422-1.055 0.422-0.445 1.078 0.445 1.078 1.055 0.422zM14.484 8.016q0.609 0 1.055-0.445t0.445-1.055-0.445-1.055-1.055-0.445-1.055 0.445-0.445 1.055 0.445 1.055 1.055 0.445zM9.516 8.016q0.609 0 1.055-0.445t0.445-1.055-0.445-1.055-1.055-0.445-1.055 0.445-0.445 1.055 0.445 1.055 1.055 0.445zM6.516 12q0.609 0 1.055-0.422t0.445-1.078-0.445-1.078-1.055-0.422-1.055 0.422-0.445 1.078 0.445 1.078 1.055 0.422zM12 3q3.703 0 6.352 2.344t2.648 5.672q0 2.063-1.477 3.516t-3.539 1.453h-1.734q-0.656 0-1.078 0.445t-0.422 1.055q0 0.516 0.375 0.984t0.375 1.031q0 0.656-0.422 1.078t-1.078 0.422q-3.75 0-6.375-2.625t-2.625-6.375 2.625-6.375 6.375-2.625z"></path>
</symbol>
<symbol id="icon-people_outline" viewBox="0 0 24 24">
<path d="M16.5 6.516q-0.797 0-1.406 0.586t-0.609 1.383 0.609 1.406 1.406 0.609 1.406-0.609 0.609-1.406-0.609-1.383-1.406-0.586zM16.5 12q-1.453 0-2.484-1.031t-1.031-2.484 1.031-2.461 2.484-1.008 2.484 1.008 1.031 2.461-1.031 2.484-2.484 1.031zM7.5 6.516q-0.797 0-1.406 0.586t-0.609 1.383 0.609 1.406 1.406 0.609 1.406-0.609 0.609-1.406-0.609-1.383-1.406-0.586zM7.5 12q-1.453 0-2.484-1.031t-1.031-2.484 1.031-2.461 2.484-1.008 2.484 1.008 1.031 2.461-1.031 2.484-2.484 1.031zM21.516 17.484v-1.219q0-0.469-1.664-1.125t-3.352-0.656q-1.219 0-3 0.563 0.516 0.609 0.516 1.219v1.219h7.5zM12.516 17.484v-1.219q0-0.469-1.664-1.125t-3.352-0.656-3.352 0.656-1.664 1.125v1.219h10.031zM16.5 12.984q2.016 0 4.266 0.914t2.25 2.367v2.719h-22.031v-2.719q0-1.453 2.25-2.367t4.266-0.914q2.203 0 4.5 1.031 2.297-1.031 4.5-1.031z"></path>
</symbol>
<symbol id="icon-auto_delete" viewBox="0 0 24 24">
<path d="M15 2.016h-3.516l-0.984-1.031h-5.016l-0.984 1.031h-3.516v1.969h14.016v-1.969zM15.984 9q-1.031 0-1.969 0.281v-4.266h-12v12q0 0.797 0.586 1.383t1.383 0.586h5.719q0.797 1.781 2.508 2.906t3.773 1.125q1.453 0 2.719-0.563t2.227-1.523 1.523-2.227 0.563-2.719-0.563-2.719-1.523-2.227-2.227-1.5-2.719-0.539zM15.984 21q-1.359 0-2.508-0.68t-1.805-1.805-0.656-2.531q0-1.359 0.656-2.508t1.805-1.805 2.508-0.656q1.406 0 2.531 0.656t1.805 1.805 0.68 2.508q0 1.406-0.68 2.531t-1.805 1.805-2.531 0.68zM16.5 12h-1.5v5.016l3.609 2.063 0.797-1.172-2.906-1.688v-4.219z"></path>
</symbol>
<symbol id="icon-trash" viewBox="0 0 16 16">
<path d="M9 7h2v5h-2zM15 3h-4v-2c0-0.553-0.447-1-1-1h-4c-0.553 0-1 0.447-1 1v2h-4c-0.553 0-1 0.447-1 1v1h1v10c0 0.553 0.447 1 1 1h12c0.553 0 1-0.447 1-1v-10h1v-1c0-0.553-0.447-1-1-1zM7 2h2v1h-2v-1zM13 14h-10v-9h10v9zM5 7h2v5h-2z"></path>
</symbol>
<symbol id="icon-sun" viewBox="0 0 16 16">
<path d="M8 4.5c-1.93 0-3.5 1.57-3.5 3.5s1.57 3.5 3.5 3.5 3.5-1.57 3.5-3.5c0-1.93-1.57-3.5-3.5-3.5zM8 10.5c-1.381 0-2.5-1.119-2.5-2.5s1.119-2.5 2.5-2.5 2.5 1.119 2.5 2.5-1.119 2.5-2.5 2.5zM8 3.5c0.276 0 0.5-0.224 0.5-0.5v-1c0-0.276-0.224-0.5-0.5-0.5s-0.5 0.224-0.5 0.5v1c0 0.276 0.224 0.5 0.5 0.5zM8 12.5c-0.276 0-0.5 0.224-0.5 0.5v1c0 0.276 0.224 0.5 0.5 0.5s0.5-0.224 0.5-0.5v-1c0-0.276-0.224-0.5-0.5-0.5zM11.889 4.818l0.707-0.707c0.195-0.195 0.195-0.512 0-0.707s-0.512-0.195-0.707 0l-0.707 0.707c-0.195 0.195-0.195 0.512 0 0.707s0.512 0.195 0.707 0zM4.111 11.182l-0.707 0.707c-0.195 0.195-0.195 0.512 0 0.707s0.512 0.195 0.707 0l0.707-0.707c0.195-0.196 0.195-0.512 0-0.707s-0.512-0.196-0.707 0zM3.5 8c0-0.276-0.224-0.5-0.5-0.5h-1c-0.276 0-0.5 0.224-0.5 0.5s0.224 0.5 0.5 0.5h1c0.276 0 0.5-0.224 0.5-0.5zM14 7.5h-1c-0.276 0-0.5 0.224-0.5 0.5s0.224 0.5 0.5 0.5h1c0.276 0 0.5-0.224 0.5-0.5s-0.224-0.5-0.5-0.5zM4.111 4.818c0.195 0.195 0.512 0.195 0.707 0s0.195-0.512 0-0.707l-0.707-0.707c-0.195-0.195-0.512-0.195-0.707 0s-0.195 0.512 0 0.707l0.707 0.707zM11.889 11.182c-0.196-0.195-0.512-0.195-0.707 0s-0.196 0.512 0 0.707l0.707 0.707c0.195 0.195 0.512 0.195 0.707 0s0.195-0.512 0-0.707l-0.707-0.707z"></path>
</symbol>
<symbol id="icon-moon" viewBox="0 0 16 16">
<path d="M10.933 10.723c-1.559 1.56-4.096 1.56-5.656 0s-1.56-4.098 0-5.657c0.413-0.412 0.916-0.727 1.495-0.932 0.182-0.064 0.384-0.018 0.52 0.119 0.137 0.137 0.183 0.339 0.119 0.52-0.392 1.105-0.125 2.302 0.695 3.122 0.819 0.82 2.016 1.086 3.122 0.695 0.181-0.064 0.383-0.018 0.52 0.118 0.137 0.135 0.182 0.338 0.118 0.52-0.204 0.579-0.519 1.082-0.932 1.495zM5.984 5.774c-1.17 1.17-1.17 3.074 0 4.243 1.25 1.251 3.379 1.138 4.469-0.255-1.124 0.070-2.23-0.335-3.055-1.159s-1.229-1.93-1.159-3.054c-0.090 0.070-0.175 0.145-0.255 0.225z"></path>
</symbol>
<symbol id="icon-digg" viewBox="0 0 32 28">
<path d="M5.125 4.406h3.187v15.359h-8.313v-10.891h5.125v-4.469zM5.125 17.203v-5.766h-1.922v5.766h1.922zM9.594 8.875v10.891h3.203v-10.891h-3.203zM9.594 4.406v3.187h3.203v-3.187h-3.203zM14.078 8.875h8.328v14.719h-8.328v-2.547h5.125v-1.281h-5.125v-10.891zM19.203 17.203v-5.766h-1.922v5.766h1.922zM23.688 8.875h8.313v14.719h-8.313v-2.547h5.109v-1.281h-5.109v-10.891zM28.797 17.203v-5.766h-1.922v5.766h1.922z"></path>
</symbol>
<symbol id="icon-envelope" viewBox="0 0 38 32">
<path d="M20.060 0.413c-0.58-0.533-1.539-0.533-2.119 0l-17.688 10.671c-0.15 0.091-0.242 0.253-0.242 0.428v18.922c0 0.863 0.706 1.566 1.574 1.566h34.83c0.868 0 1.574-0.703 1.574-1.566v-18.922c0-0.175-0.092-0.337-0.242-0.428l-17.687-10.671zM18.504 1.24c0.035-0.021 0.066-0.046 0.095-0.074 0.108-0.107 0.25-0.166 0.401-0.166s0.293 0.059 0.4 0.166c0.029 0.028 0.061 0.053 0.095 0.074l17.227 10.394-12.478 7.436c-0.237 0.142-0.315 0.448-0.174 0.686 0.094 0.157 0.26 0.244 0.43 0.244 0.087 0 0.175-0.022 0.255-0.070l12.245-7.29v17.757l-16.935-11.266c-0.538-0.429-1.594-0.429-2.096-0.025l-16.969 11.286v-17.752l12.244 7.29c0.080 0.048 0.169 0.070 0.256 0.070 0.17 0 0.336-0.087 0.43-0.244 0.141-0.237 0.063-0.544-0.174-0.686l-12.479-7.436 17.227-10.394zM36.090 31h-34.188l16.656-11.086c0.173-0.138 0.712-0.137 0.919 0.025l16.613 11.061zM6.5 13h25c0.276 0 0.5-0.224 0.5-0.5s-0.224-0.5-0.5-0.5h-25c-0.276 0-0.5 0.224-0.5 0.5s0.224 0.5 0.5 0.5z"></path>
</symbol>
<symbol id="icon-select-arrows" viewBox="0 0 20 20">
<path d="M10 1l-5 7h10l-5-7zM10 19l5-7h-10l5 7z"></path>
</symbol>

<symbol id="icon-bell" viewBox="0 0 24 24">
<path d="M19.715 17.301c-0.017-0.018-1.717-1.854-1.73-6.32-0.009-2.607-1.69-4.824-4.019-5.641 0.018-0.111 0.034-0.223 0.034-0.34 0-1.103-0.896-2-2-2s-2 0.897-2 2c0 0.116 0.016 0.228 0.034 0.338-2.336 0.816-4.019 3.036-4.019 5.646 0 4.462-1.711 6.296-1.721 6.306-0.287 0.286-0.374 0.716-0.22 1.091s0.521 0.619 0.926 0.619h3.143c0.447 1.72 1.999 3 3.857 3s3.41-1.28 3.857-3h3.143c0.4 0 0.758-0.243 0.915-0.61s0.076-0.799-0.2-1.089zM12 7c2.189 0 3.978 1.789 3.984 3.987 0.002 0.728 0.046 1.396 0.118 2.013h-8.2c0.071-0.617 0.113-1.286 0.113-2.016 0.001-2.196 1.788-3.984 3.985-3.984zM12 20c-0.737 0-1.375-0.405-1.722-1h3.443c-0.346 0.595-0.984 1-1.721 1zM6.814 17c0.352-0.736 0.705-1.731 0.938-3h8.502c0.234 1.269 0.588 2.264 0.938 3h-10.378z"></path>
</symbol>

</defs>
</svg>
